<svg class="icon-blog-li" xmlns="http://www.w3.org/2000/svg" xmlns:xlink="http://www.w3.org/1999/xlink" x="0px" y="0px" viewBox="0 0 512 512" style="enable-background:new 0 0 512 512;" xml:space="preserve">
	<path d="M436.146,212.603c-25.332-21.878-55.011-38.584-87.321-49.525
		c17.451-7.083,33.641-16.211,48.052-27.231c39.115-29.912,60.656-70.084,60.656-113.118h-32.681
		c0,38.668-23.74,73.298-60.969,96.295c11.044-18.657,17.395-40.407,17.395-63.614c0-17.418-3.511-34.283-10.435-50.127
		l-29.945,13.089c5.109,11.69,7.7,24.152,7.7,37.038c0,51.057-41.538,92.596-92.596,92.596s-92.596-41.538-92.596-92.596
		c0-12.884,2.589-25.344,7.699-37.034L141.156,5.291c-6.923,15.841-10.433,32.704-10.433,50.119c0,23.209,6.351,44.958,17.395,63.614
		c-37.229-22.998-60.969-57.627-60.969-96.295H54.468c0,43.034,21.541,83.208,60.656,113.118
		c14.411,11.02,30.601,20.148,48.052,27.231c-32.31,10.94-61.989,27.647-87.321,49.525C26.939,254.847,0,311.216,0,371.325
		c0,28.159,5.925,55.613,17.612,81.6l29.805-13.405c-9.778-21.745-14.736-44.688-14.736-68.195
		c0-49.525,22.232-94.695,58.629-128.624c-16.487,28.195-25.949,60.989-25.949,95.943c0,70.366,38.555,134.768,100.617,168.072
		l15.454-28.796c-51.436-27.603-83.39-80.97-83.39-139.276c0-87.098,70.859-157.957,157.957-157.957s157.956,70.86,157.956,157.957
		c0,58.306-31.952,111.674-83.39,139.277l15.453,28.796c62.064-33.305,100.619-97.708,100.619-168.073
		c0-34.954-9.46-67.747-25.948-95.943c36.397,33.929,58.628,79.1,58.628,128.624c0,23.966-5.148,47.328-15.302,69.44l29.699,13.639
		C505.848,427.982,512,400.032,512,371.325C512,311.216,485.061,254.847,436.146,212.603z"/>
	<path d="M436.146,212.603c-25.332-21.878-55.011-38.584-87.321-49.525
		c17.451-7.083,33.641-16.211,48.052-27.231c39.115-29.912,60.656-70.084,60.656-113.118h-32.681
		c0,38.668-23.74,73.298-60.969,96.295c11.044-18.657,17.395-40.407,17.395-63.614c0-17.418-3.511-34.283-10.435-50.127
		l-29.945,13.089c5.109,11.69,7.7,24.152,7.7,37.038c0,51.057-41.538,92.596-92.596,92.596h-0.001v32.681H256
		c87.098,0,157.956,70.86,157.956,157.957c0,58.306-31.952,111.674-83.39,139.277l15.453,28.796
		c62.064-33.305,100.619-97.708,100.619-168.073c0-34.954-9.46-67.747-25.948-95.943c36.397,33.929,58.628,79.1,58.628,128.624
		c0,23.966-5.148,47.328-15.302,69.44l29.699,13.639C505.848,427.982,512,400.032,512,371.325
		C512,311.216,485.061,254.847,436.146,212.603z"/>
	<path d="M333.029,196.252c-42.542-42.543-111.517-42.543-154.059,0c-42.543,42.543-42.543,111.517,0,154.06
		l77.03,77.03l77.03-77.03C375.572,307.769,375.572,238.794,333.029,196.252z"/>
	<path d="M313.726,53.464l-28.302-16.34l-23.383,40.499c-1.976-0.275-3.99-0.427-6.042-0.427
		c-2.052,0-4.068,0.153-6.044,0.427l-23.38-40.495l-28.302,16.34l23.383,40.5c-5.779,7.392-9.232,16.692-9.232,26.803
		c0,24.066,19.509,43.574,43.574,43.574c24.065,0,43.574-19.508,43.574-43.574c0-10.111-3.453-19.41-9.233-26.804L313.726,53.464z"/>
	<path d="M313.726,53.464l-28.302-16.34l-23.383,40.499c-1.976-0.275-3.99-0.427-6.042-0.427v87.149
		c24.065,0,43.574-19.508,43.574-43.574c0-10.111-3.453-19.41-9.233-26.804L313.726,53.464z"/>
	<path d="M333.029,196.252c-21.271-21.271-49.15-31.906-77.029-31.906v262.996l77.03-77.03
		C375.572,307.769,375.572,238.794,333.029,196.252z"/>
</svg>
