<?xml version="1.0" encoding="iso-8859-1"?>
<!-- Generator: Adobe Illustrator 19.0.0, SVG Export Plug-In . SVG Version: 6.00 Build 0)  -->
<svg version="1.1" id="Layer_1" xmlns="http://www.w3.org/2000/svg" xmlns:xlink="http://www.w3.org/1999/xlink" x="0px" y="0px"
	 viewBox="0 0 512 512" style="enable-background:new 0 0 512 512;" xml:space="preserve">
<path style="fill:#00BCD4;" d="M504.026,192.375C475.738,81.771,375.42,0,256,0C114.616,0,0,114.616,0,256
	c0,119.42,81.771,219.738,192.375,248.026L504.026,192.375z"/>
<path style="fill:#0097A7;" d="M512,256c0-21.965-2.77-43.282-7.974-63.625l-75.504-75.506L83.478,395.13l108.896,108.896
	C212.718,509.23,234.035,512,256,512C397.385,512,512,397.385,512,256z"/>
<polygon style="fill:#80DEEA;" points="428.522,161.391 233.739,139.13 256,395.13 428.522,395.13 "/>
<polygon style="fill:#B2EBF2;" points="83.478,161.391 83.478,395.13 256,395.13 256,139.13 "/>
<polygon style="fill:#E0F7FA;" points="406.261,183.652 256,183.652 211.478,278.261 256,372.87 406.261,372.87 "/>
<rect x="105.739" y="183.652" style="fill:#FFFFFF;" width="150.261" height="189.217"/>
<polygon style="fill:#FF5722;" points="350.609,116.87 328.348,139.13 350.609,161.391 428.522,161.391 428.522,116.87 "/>
<polygon style="fill:#006064;" points="350.609,116.87 256,116.87 233.739,139.13 256,161.391 350.609,161.391 "/>
<rect x="83.478" y="116.87" style="fill:#00838F;" width="172.522" height="44.522"/>
<polygon style="fill:#006064;" points="278.261,300.522 278.261,256 256,256 252.028,278.261 256,300.522 "/>
<g>
	<rect x="233.739" y="256" style="fill:#00838F;" width="22.261" height="44.522"/>
	<polygon style="fill:#00838F;" points="211.478,300.522 211.478,256 189.217,256 185.245,278.261 189.217,300.522 	"/>
</g>
<rect x="166.957" y="256" style="fill:#0097A7;" width="22.261" height="44.522"/>
<polygon style="fill:#006064;" points="345.043,300.522 345.043,256 322.783,256 318.81,278.261 322.783,300.522 "/>
<rect x="300.522" y="256" style="fill:#00838F;" width="22.261" height="44.522"/>
<g>
</g>
<g>
</g>
<g>
</g>
<g>
</g>
<g>
</g>
<g>
</g>
<g>
</g>
<g>
</g>
<g>
</g>
<g>
</g>
<g>
</g>
<g>
</g>
<g>
</g>
<g>
</g>
<g>
</g>
</svg>
