<?xml version="1.0" standalone="no"?><!DOCTYPE svg PUBLIC "-//W3C//DTD SVG 1.1//EN" "http://www.w3.org/Graphics/SVG/1.1/DTD/svg11.dtd"><svg t="1535359692493" class="icon" style="" viewBox="0 0 1024 1024" version="1.1" xmlns="http://www.w3.org/2000/svg" p-id="10739" xmlns:xlink="http://www.w3.org/1999/xlink" width="200" height="200"><defs><style type="text/css"></style></defs><path d="M993.792 264.192c-34.816-54.272-110.592-80.896-207.872-80.896-19.968 0-40.96 1.024-62.976 3.584-50.688-105.984-125.952-173.056-209.92-173.056s-158.72 67.072-209.92 173.056c-21.504-2.048-43.008-3.584-62.976-3.584-97.28 0-173.056 26.624-207.872 80.896-41.984 65.536-15.36 157.696 60.928 250.368-75.776 92.672-102.4 184.832-60.416 250.368C67.072 819.2 143.36 845.824 240.64 845.824c19.968 0 40.96-1.024 62.976-3.584 50.688 105.984 125.952 172.544 209.92 172.544s158.72-67.072 209.92-172.544c22.016 2.048 43.008 3.584 62.976 3.584 97.28 0 173.056-26.624 207.872-80.896 41.984-65.536 15.36-157.696-60.928-250.368 75.776-92.672 102.4-184.832 60.416-250.368zM785.92 230.4c42.496 0 78.336 5.632 107.52 16.384 25.6 9.728 44.544 23.552 55.808 40.96 12.288 19.456 15.872 43.52 10.24 72.192-6.144 31.744-24.064 68.096-51.2 104.96-3.072 4.096-5.632 7.68-8.704 11.776-33.28-34.816-73.216-68.608-119.296-100.864-8.192-51.712-20.992-99.84-37.376-143.36 14.336-1.536 29.184-2.048 43.008-2.048z m-96.256 560.128c-34.816-5.632-71.168-14.336-108.032-25.6 23.552-10.24 47.104-21.504 70.656-33.792 23.552-12.288 46.08-25.088 67.584-37.888-0.512 2.048-1.024 4.608-1.536 6.656-7.68 32.256-17.408 62.464-28.672 90.624z m-63.488-99.84c-37.376 19.456-75.264 36.352-112.64 50.688-37.888-14.336-75.776-31.744-112.64-50.688-37.376-19.456-72.192-40.448-105.472-62.464-5.12-36.864-7.68-74.752-7.68-113.664s2.56-76.8 7.68-113.664C328.192 378.88 363.52 357.888 400.384 338.432c37.376-19.456 75.264-36.352 112.64-50.688 37.888 14.336 75.776 31.744 112.64 50.688 37.376 19.456 72.192 40.448 105.472 62.464 5.12 36.864 7.68 74.752 7.68 113.664s-2.56 76.8-7.68 113.664c-32.768 22.016-68.096 43.008-104.96 62.464z m-317.952 9.216c-0.512-2.048-1.024-4.096-1.536-6.656 21.504 13.312 44.032 26.112 67.584 37.888 23.552 12.288 47.104 23.552 70.144 33.792-36.864 11.264-73.216 19.968-108.032 25.6-10.752-28.16-20.48-58.368-28.16-90.624z m-69.632-113.664c-2.048-1.536-3.584-3.072-5.632-4.608-27.136-22.016-51.712-44.544-73.216-67.584 21.504-22.528 45.568-45.056 73.216-67.584 2.048-1.536 3.584-3.072 5.632-4.608-2.048 23.552-3.072 47.616-3.072 71.68 0 25.6 1.024 49.152 3.072 72.704z m97.792-347.648c34.816 5.632 71.168 14.336 108.544 25.6-23.552 10.24-47.104 21.504-70.656 33.792-23.552 12.288-46.08 25.088-67.584 38.4 0.512-2.048 1.024-4.608 1.536-6.656 7.68-32.768 17.408-62.976 28.16-91.136z m381.952 90.624c0.512 2.048 1.024 4.096 1.536 6.656-21.504-13.312-44.032-26.112-67.584-37.888-23.552-12.288-47.104-23.552-70.144-33.792 36.864-11.264 73.216-19.968 108.032-25.6 10.752 28.16 20.48 58.368 28.16 90.624z m69.632 113.664c2.048 1.536 3.584 3.072 5.632 4.608 27.136 22.016 51.712 44.544 73.216 67.584-21.504 22.528-45.568 45.568-73.216 67.584-2.048 1.536-3.584 3.072-5.632 4.608 2.048-23.552 3.072-47.616 3.072-71.68 0-25.6-1.024-49.152-3.072-72.704zM363.52 181.76c22.016-39.936 48.128-71.68 75.264-92.672 24.576-18.944 49.664-28.16 74.752-28.16 24.576 0 49.664 9.728 74.24 28.16 27.136 20.992 53.248 52.736 75.264 92.672 2.56 4.096 4.608 8.704 6.656 12.8-49.664 8.704-102.912 23.04-156.672 42.496-53.76-19.456-106.496-33.792-156.672-42.496 2.56-4.608 4.608-8.704 7.168-12.8zM118.784 464.896c-27.136-36.864-44.544-73.216-51.2-104.96-5.632-28.672-2.56-52.736 10.24-72.192 11.264-17.408 29.696-31.232 55.808-40.96 28.672-10.752 65.024-16.384 107.52-16.384 14.336 0 28.672 0.512 43.52 2.048-16.384 43.52-29.184 91.648-37.376 143.36-45.568 32.256-85.504 66.56-118.784 100.864-4.096-4.096-7.168-7.68-9.728-11.776zM240.64 798.72c-42.496 0-78.336-5.632-107.52-16.384-25.6-9.728-44.544-23.552-55.808-40.96-12.288-19.456-15.872-43.52-10.24-72.192 6.144-31.744 24.064-68.096 51.2-104.96 3.072-4.096 5.632-7.68 8.704-11.776 33.28 34.816 73.728 68.608 119.296 100.864 8.192 51.712 20.992 99.84 37.376 143.36-14.336 1.536-29.184 2.048-43.008 2.048z m422.4 48.64c-22.016 39.424-48.128 71.68-75.264 92.672-24.576 18.944-49.664 28.16-74.24 28.16-25.088 0-49.664-9.728-74.24-28.16-27.136-20.992-53.248-52.736-75.264-92.672-2.56-4.096-4.608-8.704-6.656-12.8 49.664-8.704 102.912-23.04 156.672-42.496 53.76 19.456 106.496 33.792 156.672 42.496-3.072 4.608-5.632 8.704-7.68 12.8z m244.736-283.136c27.136 36.864 44.544 73.216 51.2 104.96 5.632 28.672 2.048 52.736-10.24 72.192-11.264 17.408-29.696 31.232-55.808 40.96-28.672 10.752-65.024 16.384-107.52 16.384-14.336 0-28.672-0.512-43.52-2.048 16.384-43.52 29.184-91.648 37.376-143.36 45.568-32.256 85.504-66.56 119.296-100.864 3.584 4.096 6.656 7.68 9.216 11.776z" p-id="10740"></path></svg>