<?xml version="1.0" standalone="no"?><!DOCTYPE svg PUBLIC "-//W3C//DTD SVG 1.1//EN" "http://www.w3.org/Graphics/SVG/1.1/DTD/svg11.dtd"><svg t="1535379234280" class="icon" style="" viewBox="0 0 1304 1024" version="1.1" xmlns="http://www.w3.org/2000/svg" p-id="3175" xmlns:xlink="http://www.w3.org/1999/xlink" width="254.6875" height="200"><defs><style type="text/css"></style></defs><path d="M0 446.49054a171.094255 145.438963 90 1 0 290.877927 0 171.094255 145.438963 90 1 0-290.877927 0Z" p-id="3176"></path><path d="M1126.923945 768.927392a140.307905 171.094255 12.07 1 0 71.553865-334.6237 140.307905 171.094255 12.07 1 0-71.553865 334.6237Z" p-id="3177"></path><path d="M353.069892 190.999222a190.999222 149.508423 90 1 0 299.016847 0 190.999222 149.508423 90 1 0-299.016847 0Z" p-id="3178"></path><path d="M887.858242 431.109679a149.508423 190.999222 6.71 1 0 44.634256-379.38186 149.508423 190.999222 6.71 1 0-44.634256 379.38186Z" p-id="3179"></path><path d="M962.073434 786.025054c-10.704449 162.07067-167.201728 249.033261-352.36216 236.736415s-328.918531-118.899006-318.479481-281.058143 173.305918-264.957235 354.662289-271.415291c187.549028 37.686739 326.883801 153.577883 316.179352 315.737019z" p-id="3180"></path></svg>