<?xml version="1.0" standalone="no"?><!DOCTYPE svg PUBLIC "-//W3C//DTD SVG 1.1//EN" "http://www.w3.org/Graphics/SVG/1.1/DTD/svg11.dtd"><svg t="1535358538451" class="icon" style="" viewBox="0 0 1024 1024" version="1.1" xmlns="http://www.w3.org/2000/svg" p-id="4908" xmlns:xlink="http://www.w3.org/1999/xlink" width="200" height="200"><defs><style type="text/css"></style></defs><path d="M291.946 248.964c-3.532-30.598 24.006-17.628 20.488 0.82-5.168 4.916-14.714 0.884-20.488-0.82z m32.78-5.738c6.936-0.708 13.548-1.748 15.574-7.374-9.594-5.914-23.93 8.678-18.032 15.574 3.274-0.278 0.378-6.724 2.458-8.2z m-91.79 18.85c5.776-2.686 15.266-1.672 18.032-7.374-17.192-5.988-48.152-1.568-53.276 9.834 13.106-0.81 24.066-11.21 35.244-2.46z m-38.522 3.282c-3.724-0.782-5.16 3.448-3.276 5.734 2.91-0.096 3.298-2.712 3.276-5.734z m-9.016 16.392c-0.524-7.818-19.436-14.06-21.306-3.278 1.636 6.122 16.89 10.06 21.306 3.278z m-31.96-7.374c-3.906 0.182-5.914 2.284-8.198 4.096 2.972 1.732 9.556 1.112 8.198-4.096z m-9.832 22.124c14.436-1.014 18.83 12.26 31.138 10.654 2.294-14.288-27.07-33.942-31.138-10.654z m195.052 71.298c-4.304-14.284 8.876-26.544 0.818-37.702-11.156 0.89-20.804 52.668-4.916 52.46 11.408-0.158 15.43-31.476 16.388-41.796-8.352 4.748-4.714 21.504-12.29 27.038z m-136.866-5.73c0.248-2.166-1.136-2.694-3.278-2.466 0.054 2.212 1.872 3.942 3.278 2.466z m40.16 23.766c0.158-5.078-0.042-9.794-4.096-10.654-3.086-0.35-2.902 2.562-4.92 3.282 1.126 4.332 3.414 7.514 9.016 7.372z m-39.34 26.228c15.714 1.768 26.236 13.104 40.978 13.108-11.756-7.914-23.97-15.366-42.618-16.388-0.594 2.236 1.628 1.65 1.64 3.28z m123.754 12.292c-1.222-5.61-3.656-10.01-6.554-13.936 1.066 5.76 2.536 11.118 6.554 13.936z m-90.154 18.028c-10.286-13.764-26.674-25.758-45.074-28.686 2.598 21.986 27.038 22.144 45.074 28.686z m-27.862 4.914c-7.024-11.822-19.066-18.634-33.606-22.942 8.172 10.156 15.658 25.292 33.606 22.942z m-37.702-11.468c2.798 4.858 9.832 9.824 8.198 16.39-7.186-2.1-10.68-7.898-18.032-9.834 3.904 5.422 18.804 29.458 27.862 28.69 5.782-0.5 8.396-6.882 7.376-17.212-4.43-9.51-18.532-13.706-25.404-18.034z m41.798 21.308c1.822 5.01 2.462 11.196 9.018 11.47-1.116-5.71-4.452-9.208-9.018-11.47z m-5.738 2.462c-3.056-0.334-4.806 0.648-4.914 3.272 0.918 0.18 1.276 0.908 1.636 1.638 2.62-0.102 3.612-1.854 3.278-4.91z m140.146 18.846c0.854-4.632 1.722-13.556 0-18.032-1.052 4.604-5.01 14.96 0 18.032z m-57.368-17.212c0.626 4.844-1.716 12.646 2.458 13.94 0.182-3.586 1.018-11.662-2.458-13.94z m38.518 18.852c-2.378-2.108-5.79 1.078-7.376-0.816-1.676-5.426-0.982-13.22-5.736-15.574h-1.636c-6.75 13.98-6.084 44.014 5.734 51.628 2.232 3.782 2.45 9.574 8.196 9.84 4.724-3.75 5.884-11.048 6.558-18.856-10.258-2.154-0.702-19.836-5.74-26.222z m24.59 9.01c1.01-7.256 7.214-17.81 2.458-25.4-1.57 7.182-4.542 17.304-2.458 25.4z m-144.244 6.566c1.306-3.746 0.28-10.1-2.46-12.296-1.912 3.588-3.024 11.852 2.46 12.296z m14.75 3.274c3.31 2.154 3.564 7.36 8.198 8.196 5.766-7.36-5.172-20.332-8.198-8.196z m140.146 16.388c0.006 2.512-3.286 5.948-0.818 8.194 0.474-2.03 2.968-6.254 0.818-8.194z m7.374 31.964c-0.034-3.784 0.462-8.1-1.636-9.83-0.368 2.918-2.53 9.38 1.636 9.83z m-104.082 33.608c0.486 3.052 0.984 6.114 4.096 6.554 2.01-2.812 0.526-7.792-4.096-6.554z m36.88 4.1c1.14 2.164 4.416 6.462 6.554 4.908-1.896-1.398-4.084-6.802-6.554-4.908z m77.856 9.016c-2.302 9.758 3.148 18.648 7.378 24.586 1.732-9.514 1.57-23.138-7.378-24.586z m20.494 63.094c1.238-2.478 1.676-10.114-0.82-11.46-2.158 2.96-4.082 10.046 0.82 11.46z m36.872 39.348c-1.186-6.022-5.904-12.526-10.65-12.3 1.66 5.986 1.948 13.356 10.65 12.3z m7.384 11.47c0.034 3.792-0.458 8.118 1.636 9.83 0.106-3.918 0.05-7.694-1.636-9.83z m-270.46 0.822c0.012 3.002 1.618 4.392 3.282 5.738-0.328-2.686-0.712-5.296-3.282-5.738z m299.964 45.07c-2.018-15.454-10.146-24.808-20.488-31.954 1.48 15.994 9.318 25.65 20.488 31.954z m131.952 81.142c-0.498-0.464-3.892-1.912-4.1 0 1.232 0.948 3.452 2.878 4.1 0z m415.522 60.648v9.016c-1.332 2.77-1.764 6.43-2.462 9.832-22.79 14.636-65.606 9.248-84.418 27.87-32.994-17.774-63.658 10.222-98.34 13.118-5.73 0.472-12.102-0.482-18.042 0-20.492 1.654-40.504 6.446-61.462 8.192-21.49 1.79-43.024 3.102-65.562 4.1h-24.586c-101.65-5.338-202.154-19.012-277.016-52.456-37.322-16.676-71.676-37.134-103.264-61.47-30.74-23.67-62.294-49.986-84.42-79.494-23.556-31.422-47.124-61.978-68.024-96.704-20.162-33.518-39.008-68.824-55.728-108.188-16.494-38.816-28.246-77.226-39.344-124.574-7.254-30.968-14.91-66.03-27.864-95.068-5.044-11.308-10.916-20.564-11.472-31.148v-7.374c4.042-34.424 30.814-54.406 62.286-63.93 7.88-2.382 15.542-4.658 22.948-9.016 0.482-0.278 5.204-0.76 3.282-3.276-14.022-3.374-25.558 17.27-40.978 11.474-13.69-5.148-5.808-26.344 9.016-32.782 6.92-3.006 20.66-3.788 27.042-7.376 11.004-6.184 15.998-19.25 13.936-31.144-1.222-7.028-8.516-10.728-8.196-16.392 0.448-7.898 14.57-14.766 21.306-19.67 8.242-5.998 17.998-13.49 17.212-22.948-0.828-9.88-12.448-13.028-18.032-20.488C102.054 84 100.664 66.5 114.916 59.642c14.942-7.19 42.78-3.272 45.898 15.574 2.748 16.61-9.044 22.938-4.102 35.24 9.208 22.892 80.818-13.344 63.112 34.424 15.748 24.686 77.29 3.568 78.678 42.618 25.668 0.516 37.464 19.994 58.188 27.866 5.554 2.108 12.168 2.108 18.032 4.096 34.952 11.88 78.264 24.624 92.61 58.19-12.964 8.734-30.656 2.886-45.892-2.458-13.254-4.654-32.574-13.87-45.898-8.198-13.21 5.626-12.504 28.196-10.654 50.81 4.92 60.204 7.806 122.302 16.388 176.208 11.986 75.246 37.606 135.512 73.766 182.768 34.98 45.718 76.074 93.592 129.486 127.036 45.07 28.21 95.706 50.468 159.82 64.74 9.508 2.122 21.002 6.754 26.224 5.738 7.742-1.488 24.402-24.002 30.332-29.5 14.098-13.108 33.068-31.448 53.262-15.578-2.744 21.85-22.322 26.866-27.046 46.724 12.142 7.726 25.018 0.732 40.164 1.63 17.624 1.048 31.138 11.154 45.902 9.016 9.422-1.364 14.138-8.382 21.306-13.108 16.284 23.806 79.068-7.184 88.51 22.126z m-177.854-60.648c-0.348-2.644 1.082-7.086-1.636-7.368-2.364 1.198-4.7 8.732 1.636 7.368zM432.914 257.98c8.028 4.808 15.096 10.584 22.126 16.398 4.232-12.462-7.914-20.434-22.126-19.674v3.276z m220.462 604.022c3.126 0.658 5.388 1.282 5.738-2.454-2.92-0.19-4.906 0.542-5.738 2.454z m-113.104-72.126c-0.276 3.86 7.51 3.934 9.024 3.278-1.282-2.562-5.166-5.888-9.024-3.278z m-19.67-15.568c1.364 1.38 4.814 0.648 7.376 0.822 0.274-3.002-0.916-4.556-1.638-6.562-4.308-0.472-5.498 2.154-5.738 5.74zM363.246 439.1c-2.224-1.884-3.838 1.568-4.918 0 2.67-20.332 6.96-51.636-1.638-68.836-2.126-1.856-5.49 0.652-6.554-0.824 5.722-13.66 9.586-42.15 7.374-59.008-0.778-5.942-3.864-16.51-7.374-18.85-8.82-5.872-16.846 3.152-22.952 4.918-3.842 1.12-8.114 0.32-12.292 0.816-16.526 1.992-34.062 6.92-45.074 12.292 5.74 3.826 13.876 5.248 16.388 12.292-14.28-1.01-25.42-5.166-37.702-8.192 1.31 18.49-21.366 12.696-35.238 13.936 4.792 0.104 5.56 2.42 5.738 5.734 0.57 10.878-35.226 23.77-47.536 15.578-17.558 14.156 7.726 28.616 6.556 46.716-3.452 2.558-5.046 6.97-8.196 9.826-17.45 0.424-35.804 3.934-32.788 22.132-2.358-1.376-6.078-2.294-9.016-0.824-4.46 11.49 3.028 23.962 13.118 26.232 2.542-0.74 3.134-3.422 6.556-3.278 22.792 4.358 30.816 19.474 29.506 48.348-0.228 4.972 0.266 11.46-3.278 14.758-12.934-0.886-24.926-32.81-4.1-33.6-4.994-7.348-8.776-18.31-18.032-18.036-10.61 0.316-15.372 17.084-22.948 22.95 10.92 6.034 36.566 22.686 15.57 33.602 10.394 1.558 16.194 5.68 20.488 11.468 7.156 9.664 6.928 24.144 12.296 31.97 10.862 15.844 16.596-14.212 29.5-1.646 3.048 1.048-1.342-2.96-1.638-3.27-11.07-11.952-27.954-21.748-34.42-36.062 4.97-2.278 11.632 0.208 16.388 0.816 1.88-9.628-4.81-20.524-2.458-27.872 1.694-5.268 4.82-2.948 8.198-4.912 1.986-1.156 0.432-5.46 4.1-4.096-0.022 11.252-6.802 30.188 0.814 38.518 11.122 1.996 14.334-17.13 23.772-17.21 5.272-0.046 10.254 9.234 13.93 13.932 4.416 5.638 10.418 12.566 9.016 18.846-2.952 13.24-25.188 3.16-32.782-2.46 4.628 18.372 33.106 21.224 34.42 45.086 0.15 2.662-1.194 6.062-0.818 9.008 1.61 12.592 13.352 21.95 25.404 13.94 1.772 4.516 2.004 10.57 6.562 12.292 3.992-3.376 2.574-12.178 4.914-17.216 14.3 2.994 21.766 9.88 26.224 21.308 2.208 5.654 1.638 16.134 10.654 16.392 1.38-13.972-9.568-22.63-11.47-36.062 7.346 11.852 33.844 24.676 32.784 43.44-0.704 12.376-15.412 13.722-29.506 15.57 13.432 4.616 19.058 19.66 33.602 24.584 3.908 1.332 8.928 0.192 13.112 1.646 10.642 3.702 27.658 25.518 22.952 39.34-22.676 11.428-40.368-19.46-65.568-18.846 10.626 13.548 28.008 18.056 42.618 24.586 15.724 7.02 31.468 14.212 46.716 21.306 35.944 16.718 60.894 38.592 84.418 66.386-16.322 8.9-65.794-5.904-36.062-16.4-10.342-0.35-21.288-6.836-30.328-3.268 4.792 31.272 45.936 26.19 77.044 31.138-2.832 5.364-6.824 9.572-9.838 14.754 2.398 1.414 5.712 1.93 9.838 1.638-1.992 3.194-7.178 3.202-7.38 8.192 3.984 5.306 11.87 6.712 17.212 10.654 21.062-15.104 23.424 19.162 36.88 19.67 12.716 0.474 15.154-17.798 27.872-19.67-3.196 6.646-9.45 10.222-12.292 17.216 12.452-3.01 16.002-9.714 26.214-12.3 36.596-9.258 66.596 21.224 96.71 24.594 10.828 1.206 21.592 7.286 31.146 9.016 12.352 2.228 19.946-1.838 29.502-6.554-14.554-13.59-47.972-8.298-59.824-24.594 0.458-2.818 2.386-4.166 4.1-5.73-38.36 8.426-62.512-14.562-78.68-36.062-47.324-12.224-88.842-30.266-109.008-69.662-0.968-3.71 3.634-1.83 2.466-5.74-16.638-18.514-33.268-37.31-46.716-59.01-4.648-7.492-7.83-16.908-13.116-22.946-3.348-3.826-8.966-5.932-12.292-9.84-3.642-4.284-4.138-9.648-9.84-11.468-2.192 3.268-0.722 10.196-2.454 13.93-3.942-15.826-12.724-30.856-29.504-31.146-0.312-11.51 8.986-13.406 13.93-19.67-6.508-7.826-8.076-17.682-11.472-29.5-8.256-28.718-15.078-58.718-22.132-85.24-9.348 3.49-11.826 13.852-16.388 22.13 0.45-11.84 1.004-23.584 7.378-29.51 2.914 0.366 3.234 3.328 4.914 4.92 1.54-5.584 6.824-10.792 4.096-18.028-2.116-3.268-8.302-1.744-9.83-1.638 4.044-9.898 7.44-27.862 2.462-39.34z m329.468 486.014c7.086-3.028 13.464-6.754 16.384-13.94-7.702 1.93-18.562 4.84-16.384 13.94z m0.816-16.394c-4.74 2.626-10.072 4.682-13.108 9.016 6.794 0.406 14.754-6.414 13.108-9.016z m-25.402 12.292c4.64-1.238 9.606-6.03 9.016-9.838-5.388 0.54-13.722 4.382-9.016 9.838z m3.278-18.854c-7.376-2.33-13.398 3.444-13.94 10.662 6.572-1.63 11.02-5.38 13.94-10.662z m-22.954 1.646c-7.204 1.256-12.592 4.324-14.754 10.646 8.806 3.494 13.314-4.074 14.754-10.646z m-11.47 21.31c2.03 0.116 3.974 0.148 4.1-1.646-1.23-1.3-4.674-1.2-4.1 1.646z m13.116-35.248c-11.468-0.88-25.184 6.562-18.032 16.392 7.636-3.842 15.37-7.576 18.032-16.392z m-56.556 15.578c7.162 1.006 9.034-7.186 13.94-5.748 2.846 1.796 1.116 8.176 5.73 8.202 10.72-2.18 14.58-16.808 8.194-27.046-14.448 2.542-27.666 10.494-27.864 24.592z m3.276-21.31c-4.35 2.204-8.982 4.118-11.468 8.192 5.362-0.232 13.348-6.146 11.468-8.192z m-22.938 4.1c0.458 2.18-3.376 4.168-0.832 5.73 0.682-1.03 4.992-5.082 0.832-5.73z m-14.754 19.662c-0.258 1.116-1.172 1.564-0.814 3.278h3.278c0.222-2.146-0.31-3.52-2.464-3.278z m-12.292-4.092c-4.142 0.232-5.708 3.036-5.74 7.37 3.568-0.792 6.82-1.914 5.74-7.37z m-82.786-41.802c-5.05-0.222-6.59 0.558-0.814 1.648 5.502 1.014 15.208 1.546 18.852 0-4.326-0.05-15.504-1.53-18.038-1.648z m24.594-13.108c-4.288-3.26-12.908-0.898-17.21 0.816 2.482 6.82 14.67 3.792 17.21-0.816z m-26.222 61.464c20.44 10.712 48.584 22.406 77.852 18.848-21.268-10.414-52.896-14.856-77.852-18.848z m-30.328-9.016c1.958 2.688 6.582 2.704 9.83 4.102 6.05-5.848-7.248-9.142-9.83-4.102z m-77.042-66.386c-5.532 0.482-11.552 0.466-13.112 4.924 5.27 1.954 12.896 0.74 13.112-4.924z m-15.574 21.308c1.926 1.746 5.468 3.826 6.558 0-0.848-0.866-5.85-1.688-6.558 0z m9.836-69.664c0.744-3.426-5.782-4.722-6.554-1.636 1.796 0.928 3.352 2.11 6.554 1.636z m10.658 27.862c-0.04-1.124 0.386-1.796 0.818-2.454-2.442-2.522-7.38-2.97-11.476-1.638 0.656 3.942 7.22 5.588 10.658 4.092z m0.82 52.464c1.048 1.116 3.868 1.116 4.916 0 0.386-2.578-1.024-3.352-2.458-4.108-0.736 1.456-1.98 2.394-2.458 4.108z m25.408-94.256c-2.67-7.718-11.376-5.682-17.214-8.194-9.382-4.042-17.392-13.69-29.506-13.93h-1.634c10.536 12.416 24.48 25.758 48.354 22.124z m-42.622-30.316c-7.65-5.198-16.03-9.664-27.046-11.476 3.502 8.79 17.134 11.818 27.046 11.476z m25.406 38.508c5.746 6.006 12.958 10.546 25.408 9.832-4.786-6.422-16.222-10.54-25.408-9.832z m31.144 36.886c-8.438-5.848-21.71-15.336-32.782-13.118 6.404 8.352 19.278 14.606 32.782 13.118z m-31.144 31.146c-0.198 1.166-1.348 1.374-1.638 2.446 2.02 2.636 5.06-1.896 1.638-2.446z m18.85 24.586c0.696 3.126 3.706 3.942 6.558 4.916 1.11-1.896 3.292-2.72 2.458-6.554-1.992-1.198-9.156-1.888-9.016 1.638z m15.574-36.062c-2.538-1.554-11.794-3.292-13.936 0 3.976 1.614 11.786 5.79 13.936 0z m2.458-27.872c0.82-6.096-6.076-6.122-9.016-4.1 0.276 4.1 5.7 3.054 9.016 4.1z m9.014-44.254c-3.702-5.59-13.984-4.592-21.308-6.554-5.364-6.736-18.19-9.182-29.504-7.376 12.958 8.632 27.696 15.468 50.812 13.93z m-1.638 78.678c3.52 3.038 9.038 4.076 13.932 5.74 0.262-1.93 1.292-3.078 0.818-5.74-2.386-2.752-12.74-4.174-14.75 0z m-69.664-132.772c0.82-3.824-1.43-4.574-4.918-4.092-1.236 4.242 2.852 3.152 4.918 4.092z m19.67 9.84c-2.394-0.608-1.588-4.416-4.918-4.1-3.02 2.77 2.42 6.986 4.918 4.1z m-56.55 5.738c-2.72-6.014-8.85-8.632-13.112-13.116 7.992-11.578-9.84-16.318-13.114-24.586-0.038-2.494 1.73-3.186 2.458-4.924-6.886-4.034-14.838-7.01-18.852-13.922 3.17-2.294 11.62 0.682 14.75-1.646-4.964-2.138-10.324-3.876-12.292-9.016 2.874-6.688 14.558-4.558 17.21-11.47-14.118-3.118-28.144-10.62-43.44-9.838 0.174 5.838 5.37 6.652 7.376 10.654-4.534-2.014-8.202-4.916-14.75-4.916-0.49 4.042 2.128 4.974 1.642 9.016-4.47 0.366-6.736-1.462-11.478-0.814 3.38 7.542 12.048 9.804 14.756 18.032-3.352 0.848-7.902-1.332-9.016 0 8.652 7.186 21.288 14.762 26.222 22.938-8.05-1.496-12.658-6.454-20.484-8.192 6.552 12.974 22.506 15.678 34.42 22.13 12.196 6.602 23.124 17.25 37.704 19.67z m-18.032 9.832c3.426 1.872 10.246 7.816 14.754 3.286-3.8-1.684-9.778-5.508-14.754-3.286z m-6.554-4.102c-2.306-3.734-14.072-5.722-17.208-3.278 5.348 1.54 10.388 5.69 17.208 3.278z m-14.754 2.462c-0.258 1.114-1.164 1.562-0.818 3.286 1.442-0.474 4.814 0.98 4.918-0.824-1.272-0.914-1.71-2.662-4.1-2.462z m-10.654-109.004c-2.236-7.702-5.222-16.142-11.472-22.124-3.366-3.226-6.626-3.16-9.016-7.386-6.334-11.144-3.298-26.878-11.474-38.508-1.934-0.63-5.664-1.622-7.376 0 0.154 5.374 12.626 18.116 4.102 24.586-18.848 0.748-26.104-14.256-44.256-11.478-4.088 10.588 10.364 16.028 6.552 23.772 26.072 8.368 46.778 26.498 72.94 31.138z m-59.01 24.586c4.816 3.668 11.778 9.532 18.032 9.016-4.954-3.51-9.512-11.776-18.032-9.016z m-9.016-7.368c-2.126-6.614-5.812-11.67-13.932-12.292 1.652 7.084 9.35 8.134 13.932 12.292z m-13.932 21.308c4.388 3.002 8.746 10.362 13.114 10.654-3.194-4.184-7.086-12.026-13.114-10.654z m5.74-56.556c0.424-1.214 1.208-2.062 1.638-3.278-2.102-2.894-7.284-1.314-8.194 1.646 1.612 1.116 4.68 0.784 6.556 1.632z m127.034 32.784c-0.116-7.052-7.95-11.144-13.934-7.37 1.896 5.208 7.61 6.59 13.934 7.37z m-77.046-107.354c0.138-1.356-5.046-1.356-4.914 0 1.124 0.248 4.944 3.7 4.914 0z m-31.956-3.286h-3.282c-1.126 1.054-0.81 3.568-0.82 5.73 1.498 0.224 4.596 2.96 5.74 0.83-2.028-0.714 0.236-5.704-1.638-6.56z m-61.474-0.824c2.716 6.18 13.71 5.722 15.574-0.814-4.664-1.806-11.534-0.55-15.574 0.814z m2.464-22.948c-3.17-0.158-6.042-0.026-8.202 0.824 0.638 3.576 8.18 2.94 8.202-0.824z m7.372-131.946c-4.212 1.946-12.996-1.95-17.208 0 3.73 14.766 31.376 6.816 29.506-4.92-1.588-9.956-27.878-7.49-36.882-6.554 6.978 5.04 18.07 5.968 24.584 11.474z m-32.78 15.57c1.542 2.284 5.78 1.868 8.196 3.278 0.474-1.708 2.034-2.336 1.638-4.916-2.15-1.136-9.886-2.03-9.834 1.638z m41.8-3.276c-0.442 1.788-1.988 5.302 0.814 5.738 1.952-1.376 1.544-4.55-0.814-5.738z m22.948-49.176c-0.216-2.396 1.85-2.512 1.638-4.916-3.332-0.326-5.714 0.298-5.74 3.276 1.56 0.356 2.058 1.766 4.102 1.64z m-0.82-181.944c-3.264 20 14.756 44.194 36.058 36.878 0.994-7.548-2.45-10.658-2.458-17.208 5.436-1.318 8.636 3.902 11.472 2.458-7.972-14.426-29.178-15.62-45.072-22.128z m-9.02-18.85c7.204 1.426 18.51 0.704 21.312-4.918-5.442-3.636-21.77-4.61-21.312 4.918z m-19.67-57.372c1.576-15.918-17.876-24.714-29.5-13.93-7.266 6.736-10.422 23.004 0.818 28.686-1.276-4.192-5.002-5.926-4.096-12.292 8.542-4.884 24.204 2.382 32.778-2.464z m-5.73 52.452c2.084-1.19 5.214-1.332 4.916-4.916-2.52 0.254-6.814 2.97-4.916 4.916z m-17.216 60.648c10.22 0.242 17.926-5.522 27.866-5.734 8.604-0.182 16.804 2.378 27.046 1.638-7.314-21.466-42.852-2.72-54.912 4.096z m-15.57 37.702c19.338-2.458 46.28-15.182 72.122-12.292 9.748 1.088 18.286 6.574 23.766 10.654-2.794-2.982-6.104-15.22 0-17.208 13.45 2.562 13.898 27.974 30.324 24.586 8.368-1.726 10.916-17.958 6.558-27.866 6.254 4.4 9.476 11.832 18.032 13.934-1.952-7.884-7.626-12.046-11.472-18.032 2.416-3.044 5.58-5.348 4.914-11.478-23.454-2.254-44.272 10.406-66.386 14.754-17.162 3.38-29.934 6.728-45.07 10.654-11.38 2.95-24.042 5.02-32.788 12.294z m-68.844 169.654c-1.126 1.044-1.428 4.896 0.818 4.916 0.674-0.594 2.2-5.672-0.818-4.916z m28.68-97.528c-35.938 5.702 2.368 43.922 23.772 34.424 2.71-4.162 1.868-7.976 1.638-13.94 12.47 1.222 21.852-4.852 32.786-2.454 1.764 3.81-1.572 7.036-2.46 10.65 37.186-2.358 55.598-31.576 95.886-36.058 5.006-0.558 10.712 0.328 16.396 0 16.966-0.99 35.76-4.134 53.272-7.378 17.182-3.176 32.892-9.494 47.532-13.108 18.374-4.542 46.326-16.542 42.622-40.982-0.424-2.782-2.354-5.282-4.1-8.196-97.668-9.444-170.692 28.844-247.508 44.258-9.228 1.85-20.448 0.62-27.868 8.192 2.684 6.604 12.116 6.462 16.388 11.474-2.136 2.504-7.418 1.864-8.192 5.74 1.808 6.932 12.084 5.388 13.112 13.116-16.314 11.5-50.522-3.168-42.618-26.228-24.65 5.402-60.54 10.77-60.646 38.52-0.05 12.23 7.24 23.542 15.568 30.324-5.642-25.82 3.948-64 34.42-48.354z m30.328 153.258c0.746-5.55-8.376-9.436-11.472-5.734 3.02 2.714 7.748 3.716 11.472 5.734z m-28.686 10.654c5.796 20.152 7.682 44.226 22.948 54.912-2.298-23.656-10.692-41.214-22.948-54.912z m34.422-21.308c2.552-11.57-14.422-16.102-15.57-8.198-1.002 6.884 9.852 6.084 15.57 8.198zM110 422.712c-3.7-4.046-12.986-6.554-19.668-4.916 2.358 5.802 16.866 14.388 19.668 4.916z m-9.834-36.058c3.702-2.308 7.63-4.396 8.192-9.84-4.756-3.56-16.142-4.062-17.208 1.648-0.806 4.316 4.978 6.066 9.016 8.192z m10.654 13.93c0.358-2.816-0.324-4.59-0.82-6.558-4.204-0.104-6.166 2.03-6.556 5.742 2.04 0.688 4.39 1.07 7.376 0.816z m-57.37-4.096c-0.632-2.1-0.82-4.646-2.458-5.736-2.038 2.206-2.116 6.168 2.458 5.736z m8.196-55.728c-3.678-1.434-9.122 0.096-10.654 3.276 1.72 1.552 4.196 2.362 6.556 3.274 0.828-2.712 4.534-2.562 4.098-6.55z m9.01 105.722c-2.12-4.708-2.386-11.27-6.552-13.93-11.222 1.596-0.104 17.718 6.552 13.93z m15.574 88.51c8.002 19.346 16.448 40.256 33.606 49.172-12.83-14.274-15.858-37.892-24.59-54.91-3.02-5.872-7.838-10.438-10.654-16.386-6.626-14.006-9.68-30.348-22.946-36.882 5.228 20.61 16.426 39.262 24.584 59.006z m225.386 307.342c-4.96-16.892-18.274-25.444-36.882-28.686-4.6-10.97-17.876-13.258-20.488-26.224-0.424-2.662 5.076-3.602 3.282-4.916-24.944 4.724-25.824-21.714-37.702-32.786-29.974 0.542-24.398-36.544-40.978-55.724-4.736-5.488-9.432-6.754-14.754-12.292-8.19-25.382-29.564-38.258-41.798-60.646-10.866-19.894-13.152-42.334-31.142-56.556 14.234 48.19 44.728 88.926 72.122 129.496 21.928 32.46 36.84 63.376 61.466 89.326 8.368 8.806 17.816 14.704 27.868 22.946 17.098 14.02 28.872 40.028 59.006 36.062z m-3.282-55.734c-0.882-3.51-7.204-5.878-10.654-4.092a41.408 41.408 0 0 0 10.654 4.092z m30.324-21.308c-5.552-6.47-17.176-8.934-27.864-13.11-13.258-5.19-32.174-10.104-41.796-4.1 0.968 8.042 7.374 10.654 11.472 15.57 11.386 1.754 17.902 7.31 28.682 8.192 12.706 1.05 24.572 0.484 29.506-6.552z m390.934 186.868c-24.8-11.31-61.172 1.414-87.696-4.924-5.006-1.198-9.432-4.64-13.93-4.916-4.474-0.274-9.682 2.088-13.932 2.462-22.714 2.02-43.45-0.224-64.74-3.286-14.938-2.146-30.848-2.986-44.264-6.554-12.85-3.41-26.14-11.278-39.34-16.392-13.394-5.182-27.338-10.346-40.158-15.57-25.292-10.304-52.172-28.136-78.68-35.238 17.882 18.996 48.668 25.1 69.668 40.978-29.676-8.3-52.068-23.878-78.68-35.24 20.734 18.564 49.666 29.808 78.68 41.792 28.894 11.944 60.292 22.048 94.244 27.046 67.442 9.934 146.544 24.688 218.828 9.842z m21.308-2.462c-4.208 0.168-9.45-0.708-9.83 3.278 3.566 3.06 9.564 2.742 9.83-3.278z m44.256-96.712c1.164 6.056 9.956 4.25 9.024-2.46-4.468-0.634-6.404 1.264-9.024 2.46z m68.024 42.618c-22.032-0.532-49.21-8.142-72.126-7.37-8.792 0.292-19.478 2.396-22.124 11.46 6.762 2.744 14.006 1.098 22.124 0.832 26.582-0.898 59.062 11.046 72.126-4.922z m22.132-1.64c-3.834-0.008-4.964 2.696-5.738 5.73 1.054 1.13 3.558 0.824 5.738 0.832-0.39-3.626 1.124-4.082 0-6.562z m48.356-3.274c-4-0.608-5.49 4.366-4.1 6.56 2.578 0.39 3.202-1.172 4.922-1.646 0.592-2.504-1.414-2.412-0.822-4.914z m68.018 4.914c-16.778-1.788-36.372-0.682-51.626 1.646 8.982 8.458 41.244 3.06 51.626-1.646z m-788.42-498.302c8.084 4.492 15.544 13.956 26.228 13.116-2.886-3.942-6.978-6.682-9.84-10.65 3.044-0.24 5.63-0.926 6.558-3.28-9.968-6.974-22.752-15.492-27.864-24.594 3.374 6.538 8.538 16.954 4.918 25.408z m104.906 6.564c-1.754-1.796-0.964-6.146-3.282-7.376-0.522 3.566 1.786 8.552 3.282 7.376z m-75.402 71.306c1.256 13.494 9.88 19.612 10.654 33.6-9.58-10.908-14.928-26.054-21.308-40.166-0.626 17.07 4.534 27.646 9.016 39.348 3.45 8.992 6.684 19.546 15.57 22.126 4.15-0.774 3.918-5.932 8.202-6.562 4.556 0.656 6.928 7.808 9.83 7.384-2.188-2.46-2.87-6.42-3.278-10.654 0.792-3.036 5.132-2.52 6.554-4.924-8.242-16.886-20.056-30.21-35.24-40.152z" fill="" p-id="4909"></path></svg>