<?xml version="1.0" standalone="no"?><!DOCTYPE svg PUBLIC "-//W3C//DTD SVG 1.1//EN" "http://www.w3.org/Graphics/SVG/1.1/DTD/svg11.dtd"><svg t="1535358787011" class="icon" style="" viewBox="0 0 1024 1024" version="1.1" xmlns="http://www.w3.org/2000/svg" p-id="9305" xmlns:xlink="http://www.w3.org/1999/xlink" width="200" height="200"><defs><style type="text/css"></style></defs><path d="M506.03 92.163c-34.087 0.159-66.633 3.065-95.272 8.134-84.365 14.907-99.687 46.101-99.687 103.632v75.984h199.371v25.328H236.25c-57.937 0-108.674 34.829-124.549 101.082-18.303 75.937-19.12 123.326 0 202.626 14.174 59.02 48.022 101.078 105.959 101.078h68.548v-91.088c0-65.807 56.937-123.851 124.549-123.851h199.139c55.435 0 99.687-45.64 99.687-101.313V203.932c0-54.027-45.584-94.618-99.687-103.635-34.246-5.703-69.783-8.293-103.866-8.134z m-107.821 61.113c20.595 0 37.411 17.091 37.411 38.108 0 20.94-16.816 37.873-37.411 37.873-20.665 0-37.41-16.932-37.41-37.873 0-21.017 16.745-38.108 37.41-38.108z m336.237 151.969v88.529c0 68.644-58.196 126.406-124.549 126.406h-199.14c-54.546 0-99.687 46.684-99.687 101.318V811.34c0 54.024 46.983 85.815 99.687 101.312 63.109 18.557 123.629 21.914 199.139 0 50.19-14.537 99.687-43.787 99.687-101.312v-75.985H510.441v-25.328h298.826c57.948 0 79.531-40.415 99.687-101.078 20.817-62.452 19.932-122.513 0-202.626-14.323-57.678-41.667-101.078-99.687-101.078h-74.821zM622.445 786.011c20.666 0 37.411 16.932 37.411 37.873 0 21.017-16.745 38.112-37.411 38.112-20.595 0-37.411-17.096-37.411-38.112 0.001-20.94 16.817-37.873 37.411-37.873z m0 0" p-id="9306"></path></svg>