<?xml version="1.0" standalone="no"?><!DOCTYPE svg PUBLIC "-//W3C//DTD SVG 1.1//EN" "http://www.w3.org/Graphics/SVG/1.1/DTD/svg11.dtd"><svg t="1535358828912" class="icon" style="" viewBox="0 0 1024 1024" version="1.1" xmlns="http://www.w3.org/2000/svg" p-id="10011" xmlns:xlink="http://www.w3.org/1999/xlink" width="200" height="200"><defs><style type="text/css"></style></defs><path d="M212.416 363.872c79.776 30.976 186.048 48.032 299.232 48.032 231.52 0 419.872-71.456 419.872-159.264s-188.352-159.264-419.872-159.264S91.776 164.832 91.776 252.64c0 41.536 42.848 81.024 120.608 111.232z m299.232 107.104c-196.128 0-368.544-52.672-419.872-126.688v80.832c0 87.808 188.352 159.264 419.872 159.264s419.872-71.456 419.872-159.264v-80.832c-51.328 74.016-223.744 126.688-419.872 126.688z m0 172.512c-196.128 0-368.544-52.672-419.872-126.688v80.832c0 87.808 188.352 159.264 419.872 159.264S931.52 685.44 931.52 597.632V516.8c-51.328 74.016-223.744 126.688-419.872 126.688z m0 172.544c-196.128 0-368.544-52.672-419.872-126.72v80.832c0 87.808 188.352 159.264 419.872 159.264s419.872-71.456 419.872-159.264v-80.832c-51.328 74.016-223.744 126.72-419.872 126.72z" fill="" p-id="10012"></path></svg>