<?xml version="1.0" standalone="no"?><!DOCTYPE svg PUBLIC "-//W3C//DTD SVG 1.1//EN" "http://www.w3.org/Graphics/SVG/1.1/DTD/svg11.dtd"><svg t="1540887679713" class="icon" style="" viewBox="0 0 1024 1024" version="1.1" xmlns="http://www.w3.org/2000/svg" p-id="1682" xmlns:xlink="http://www.w3.org/1999/xlink" width="50" height="50"><defs><style type="text/css"></style></defs><path d="M896.271 847.926l27.218 93.178-99.226-56.029c-36.167 9.359-72.498 18.717-108.501 18.717-172.133 0-307.646-121.252-307.646-270.58 0-149.082 135.514-270.621 307.646-270.621C878.289 362.59 1023 484.129 1023 633.211 1023 717.316 968.893 791.775 896.271 847.926L896.271 847.926zM616.006 511.917c-18.022 0-36.167 18.717-36.167 37.313 0 18.84 18.145 37.311 36.167 37.311 27.341 0 45.281-18.471 45.281-37.311C661.287 530.635 643.347 511.917 616.006 511.917L616.006 511.917zM814.947 511.917c-17.859 0-35.923 18.717-35.923 37.313 0 18.84 18.063 37.311 35.923 37.311 27.135 0 45.279-18.471 45.279-37.311C860.227 530.635 842.082 511.917 814.947 511.917L814.947 511.917zM385.354 637.666c0 27.096 4.087 53.209 11.156 78.137-11.156 0.9-22.436 1.514-33.797 1.514-45.117 0-81.448-9.523-126.688-18.76l-126.442 65.389 36.167-112.18C55.189 586.541 1 502.438 1 400.026 1 222.622 163.896 82.897 362.713 82.897c177.854 0 333.679 111.648 364.982 261.875-11.524-1.308-23.131-2.206-34.86-2.206C521.031 342.566 385.354 474.77 385.354 637.666L385.354 637.666zM245.221 241.461c-27.095 0-54.477 18.472-54.477 46.506 0 27.952 27.382 46.711 54.477 46.711s45.158-18.759 45.158-46.711C290.379 259.933 272.315 241.461 245.221 241.461L245.221 241.461zM498.351 241.461c-27.095 0-54.313 18.472-54.313 46.506 0 27.952 27.218 46.711 54.313 46.711 27.257 0 45.279-18.759 45.279-46.711C543.63 259.933 525.607 241.461 498.351 241.461L498.351 241.461z" p-id="1683"></path></svg>