<?xml version="1.0" encoding="UTF-8" standalone="no"?>
<svg width="256px" height="288px" viewBox="40 30 206 228" version="1.1" xmlns="http://www.w3.org/2000/svg" xmlns:xlink="http://www.w3.org/1999/xlink" preserveAspectRatio="xMidYMid">
	<g>
		<path d="M248.728,148.661 L239.006,148.661 L239.006,158.385 L229.282,158.385 L229.282,148.661 L219.561,148.661 L219.561,138.94 L229.282,138.94 L229.282,129.218 L239.006,129.218 L239.006,138.94 L248.728,138.94 L248.728,148.661"></path>
		<path d="M213.253,148.661 L203.532,148.661 L203.532,158.385 L193.81,158.385 L193.81,148.661 L184.088,148.661 L184.088,138.94 L193.81,138.94 L193.81,129.218 L203.532,129.218 L203.532,138.94 L213.253,138.94 L213.253,148.661" ></path>
		<path d="M164.619,164.616 C157.371,177.47 143.598,186.157 127.791,186.157 C112.081,186.157 98.386,177.579 91.101,164.861 C87.562,158.681 85.527,151.526 85.527,143.893 C85.527,120.552 104.45,101.63 127.791,101.63 C143.4,101.63 157.023,110.101 164.344,122.689 L201.285,101.417 C186.602,76.071 159.189,59.019 127.791,59.019 C80.915,59.019 42.916,97.019 42.916,143.893 C42.916,159.271 47.007,173.692 54.157,186.131 C68.803,211.611 96.294,228.768 127.791,228.768 C159.346,228.768 186.88,211.542 201.505,185.987 L164.619,164.616" ></path>
	</g>
</svg>
